<?xml version="1.0" standalone="no"?>
<!DOCTYPE svg PUBLIC "-//W3C//DTD SVG 20010904//EN"
 "http://www.w3.org/TR/2001/REC-SVG-20010904/DTD/svg10.dtd">
<svg version="1.0" xmlns="http://www.w3.org/2000/svg"
 width="512.000000pt" height="512.000000pt" viewBox="0 0 512.000000 512.000000"
 preserveAspectRatio="xMidYMid meet">
<metadata>
Created by potrace 1.11, written by Peter Selinger 2001-2013
</metadata>
<g transform="translate(0.000000,512.000000) scale(0.100000,-0.100000)"
fill="#000000" stroke="none">
<path d="M1858 5035 c-2 -2 -25 -6 -53 -10 -270 -35 -569 -186 -761 -382 -93
-95 -108 -113 -167 -200 -101 -149 -178 -334 -211 -513 -9 -46 -21 -87 -27
-91 -6 -3 -36 -12 -67 -19 -217 -48 -401 -223 -467 -445 -19 -61 -27 -250 -13
-305 48 -194 174 -357 339 -437 146 -71 155 -72 667 -73 251 0 457 -2 459 -3
2 -2 -173 -179 -387 -393 -444 -442 -452 -453 -446 -573 4 -80 29 -133 93
-202 80 -86 192 -122 299 -96 22 6 31 4 31 -5 0 -7 3 -38 7 -68 24 -194 38
-311 41 -340 4 -36 15 -129 20 -170 3 -19 7 -62 10 -95 3 -33 8 -71 10 -85 3
-14 7 -50 10 -80 3 -30 7 -66 10 -80 2 -14 7 -47 10 -74 12 -97 83 -183 170
-205 47 -12 2185 -17 2242 -5 44 9 124 73 150 120 16 29 27 77 38 170 9 71 18
147 21 169 3 22 7 58 9 80 5 43 14 124 20 165 2 14 7 57 11 95 3 39 8 78 10
87 1 9 6 48 10 85 4 37 8 75 9 83 1 8 6 48 10 88 6 62 10 72 24 66 9 -3 46 -8
82 -10 79 -4 144 22 213 86 83 77 116 147 112 244 -3 104 -19 124 -447 551
l-390 390 48 2 c26 2 244 4 483 6 417 3 438 4 498 25 100 34 177 80 246 146
144 138 209 294 202 486 -4 105 -14 150 -52 235 -79 180 -190 276 -420 365
-19 8 -21 13 -14 51 12 66 4 266 -13 344 -45 197 -138 371 -271 506 -212 216
-471 322 -771 314 -71 -2 -143 -6 -160 -10 -183 -38 -342 -112 -468 -217 l-48
-40 -67 45 c-130 87 -322 169 -452 193 -14 2 -38 7 -55 11 -16 3 -39 8 -50 10
-27 5 -332 12 -337 8z"/>
</g>
</svg>
