<svg width="133" height="186" viewBox="0 0 133 186" fill="none" xmlns="http://www.w3.org/2000/svg">
<rect x="0.5" y="0.5" width="132" height="185" rx="14.5" stroke="black"/>
<rect x="11" y="145" width="112" height="21" fill="#940000"/>
<rect x="11" y="19" width="112" height="21" fill="#A6A6A6"/>
<rect x="11" y="40" width="112" height="21" fill="#96D962"/>
<rect x="11" y="61" width="112" height="21" fill="#EEE851"/>
<rect x="11" y="124" width="112" height="21" fill="#CD4AD9"/>
<rect x="11" y="103" width="112" height="21" fill="#FF3030"/>
<rect x="11" y="82" width="112" height="21" fill="#FFBD3E"/>
<path d="M93.2373 29.21H94.3911C95.116 29.1989 95.686 29.008 96.1011 28.6372C96.5161 28.2664 96.7236 27.7656 96.7236 27.1348C96.7236 25.7181 96.0181 25.0098 94.6069 25.0098C93.9429 25.0098 93.4116 25.2007 93.0132 25.5825C92.6203 25.9588 92.4238 26.4596 92.4238 27.085H90.8882C90.8882 26.1276 91.2368 25.3335 91.9341 24.7026C92.6369 24.0662 93.5278 23.748 94.6069 23.748C95.7469 23.748 96.6406 24.0496 97.2881 24.6528C97.9355 25.256 98.2593 26.0944 98.2593 27.168C98.2593 27.6937 98.0877 28.2028 97.7446 28.6953C97.4071 29.1878 96.945 29.5558 96.3584 29.7993C97.0225 30.0096 97.5343 30.3582 97.894 30.8452C98.2593 31.3322 98.4419 31.9271 98.4419 32.6299C98.4419 33.7145 98.0877 34.575 97.3794 35.2114C96.6711 35.8478 95.7497 36.166 94.6152 36.166C93.4808 36.166 92.5566 35.8589 91.8428 35.2446C91.1344 34.6304 90.7803 33.8197 90.7803 32.8125H92.3242C92.3242 33.4489 92.5317 33.958 92.9468 34.3398C93.3618 34.7217 93.918 34.9126 94.6152 34.9126C95.3568 34.9126 95.924 34.7189 96.3169 34.3315C96.7098 33.9442 96.9062 33.388 96.9062 32.6631C96.9062 31.9603 96.6904 31.4207 96.2588 31.0444C95.8271 30.6681 95.2046 30.4744 94.3911 30.4634H93.2373V29.21ZM108.129 30.8452C108.129 32.6437 107.822 33.9801 107.208 34.8545C106.593 35.7288 105.633 36.166 104.327 36.166C103.038 36.166 102.083 35.7399 101.463 34.8877C100.844 34.0299 100.523 32.7516 100.5 31.0527V29.0024C100.5 27.2261 100.808 25.9062 101.422 25.043C102.036 24.1797 102.999 23.748 104.311 23.748C105.611 23.748 106.568 24.1659 107.183 25.0015C107.797 25.8315 108.112 27.1154 108.129 28.853V30.8452ZM106.593 28.7451C106.593 27.4447 106.411 26.4984 106.045 25.9062C105.68 25.3086 105.102 25.0098 104.311 25.0098C103.525 25.0098 102.952 25.3058 102.592 25.8979C102.233 26.4901 102.047 27.4004 102.036 28.6289V31.0859C102.036 32.3919 102.224 33.3576 102.601 33.9829C102.982 34.6027 103.558 34.9126 104.327 34.9126C105.085 34.9126 105.647 34.6193 106.012 34.0327C106.383 33.4461 106.577 32.522 106.593 31.2603V28.7451ZM118.015 36H110.096V34.896L114.28 30.2476C114.9 29.5448 115.326 28.9748 115.558 28.5376C115.796 28.0949 115.915 27.6383 115.915 27.168C115.915 26.5371 115.724 26.0197 115.342 25.6157C114.96 25.2118 114.451 25.0098 113.815 25.0098C113.051 25.0098 112.456 25.2284 112.03 25.6655C111.61 26.0972 111.399 26.7004 111.399 27.4751H109.864C109.864 26.3628 110.221 25.4635 110.935 24.7773C111.654 24.0911 112.614 23.748 113.815 23.748C114.938 23.748 115.826 24.0441 116.479 24.6362C117.132 25.2228 117.459 26.0059 117.459 26.9854C117.459 28.1751 116.701 29.5918 115.185 31.2354L111.947 34.7466H118.015V36Z" fill="white"/>
<path d="M17.3579 31.4927H13.3071V30.2393H17.3579V31.4927Z" fill="white"/>
<path d="M20.5732 50.4517C20.5732 52.0386 20.3022 53.2178 19.7603 53.9893C19.2183 54.7607 18.3711 55.1465 17.2188 55.1465C16.0811 55.1465 15.2388 54.7705 14.6919 54.0186C14.145 53.2617 13.8618 52.1338 13.8423 50.6348V48.8257C13.8423 47.2583 14.1133 46.0938 14.6553 45.332C15.1973 44.5703 16.0469 44.1895 17.2041 44.1895C18.3516 44.1895 19.1963 44.5581 19.7383 45.2954C20.2803 46.0278 20.5586 47.1606 20.5732 48.6938V50.4517ZM19.2183 48.5986C19.2183 47.4512 19.0571 46.6162 18.7349 46.0938C18.4126 45.5664 17.9023 45.3027 17.2041 45.3027C16.5107 45.3027 16.0054 45.564 15.688 46.0864C15.3706 46.6089 15.207 47.4121 15.1973 48.4961V50.6641C15.1973 51.8164 15.3633 52.6685 15.6953 53.2202C16.0322 53.7671 16.54 54.0405 17.2188 54.0405C17.8877 54.0405 18.3833 53.7817 18.7056 53.2642C19.0327 52.7466 19.2036 51.9312 19.2183 50.8179V48.5986ZM25.2681 51.0229H21.6938V49.917H25.2681V51.0229ZM27.0771 49.6533L27.6191 44.3359H33.083V45.5884H28.769L28.4468 48.4961C28.9692 48.1885 29.5625 48.0347 30.2266 48.0347C31.1982 48.0347 31.9697 48.3569 32.541 49.0015C33.1123 49.6411 33.3979 50.5078 33.3979 51.6016C33.3979 52.7002 33.1001 53.5669 32.5044 54.2017C31.9136 54.8315 31.0859 55.1465 30.0215 55.1465C29.0791 55.1465 28.3101 54.8853 27.7144 54.3628C27.1187 53.8403 26.7793 53.1177 26.6963 52.1948H27.978C28.061 52.8052 28.2783 53.2666 28.6299 53.5791C28.9814 53.8867 29.4453 54.0405 30.0215 54.0405C30.6514 54.0405 31.1445 53.8257 31.501 53.396C31.8623 52.9663 32.043 52.373 32.043 51.6162C32.043 50.9033 31.8477 50.332 31.457 49.9023C31.0713 49.4678 30.5562 49.2505 29.9116 49.2505C29.3208 49.2505 28.8569 49.3799 28.52 49.6387L28.1611 49.9316L27.0771 49.6533ZM41.5645 50.4517C41.5645 52.0386 41.2935 53.2178 40.7515 53.9893C40.2095 54.7607 39.3623 55.1465 38.21 55.1465C37.0723 55.1465 36.23 54.7705 35.6831 54.0186C35.1362 53.2617 34.853 52.1338 34.8335 50.6348V48.8257C34.8335 47.2583 35.1045 46.0938 35.6465 45.332C36.1885 44.5703 37.0381 44.1895 38.1953 44.1895C39.3428 44.1895 40.1875 44.5581 40.7295 45.2954C41.2715 46.0278 41.5498 47.1606 41.5645 48.6938V50.4517ZM40.2095 48.5986C40.2095 47.4512 40.0483 46.6162 39.7261 46.0938C39.4038 45.5664 38.8936 45.3027 38.1953 45.3027C37.502 45.3027 36.9966 45.564 36.6792 46.0864C36.3618 46.6089 36.1982 47.4121 36.1885 48.4961V50.6641C36.1885 51.8164 36.3545 52.6685 36.6865 53.2202C37.0234 53.7671 37.5312 54.0405 38.21 54.0405C38.8789 54.0405 39.3745 53.7817 39.6968 53.2642C40.0239 52.7466 40.1948 51.9312 40.2095 50.8179V48.5986Z" fill="white"/>
<path d="M97.4873 52.9409H99.1641V54.1943H97.4873V57H95.9434V54.1943H90.4399V53.2896L95.8521 44.9141H97.4873V52.9409ZM92.1831 52.9409H95.9434V47.0142L95.7607 47.3462L92.1831 52.9409ZM105.597 57H104.053V46.7651L100.957 47.9023V46.5078L105.356 44.856H105.597V57ZM115.143 57H113.599V46.7651L110.503 47.9023V46.5078L114.902 44.856H115.143V57Z" fill="white"/>
<path d="M14.5088 70.6533L15.0508 65.3359H20.5146V66.5884H16.2007L15.8784 69.4961C16.4009 69.1885 16.9941 69.0347 17.6582 69.0347C18.6299 69.0347 19.4014 69.3569 19.9727 70.0015C20.5439 70.6411 20.8296 71.5078 20.8296 72.6016C20.8296 73.7002 20.5317 74.5669 19.936 75.2017C19.3452 75.8315 18.5176 76.1465 17.4531 76.1465C16.5107 76.1465 15.7417 75.8853 15.146 75.3628C14.5503 74.8403 14.2109 74.1177 14.1279 73.1948H15.4097C15.4927 73.8052 15.71 74.2666 16.0615 74.5791C16.4131 74.8867 16.877 75.0405 17.4531 75.0405C18.083 75.0405 18.5762 74.8257 18.9326 74.396C19.2939 73.9663 19.4746 73.373 19.4746 72.6162C19.4746 71.9033 19.2793 71.332 18.8887 70.9023C18.5029 70.4678 17.9878 70.2505 17.3433 70.2505C16.7524 70.2505 16.2886 70.3799 15.9517 70.6387L15.5928 70.9316L14.5088 70.6533ZM26.7622 76H25.3999V66.9692L22.668 67.9727V66.7422L26.5498 65.2847H26.7622V76ZM33.6909 72.0229H30.1167V70.917H33.6909V72.0229ZM39.3306 76H37.9683V66.9692L35.2363 67.9727V66.7422L39.1182 65.2847H39.3306V76ZM49.9873 71.4517C49.9873 73.0386 49.7163 74.2178 49.1743 74.9893C48.6323 75.7607 47.7852 76.1465 46.6328 76.1465C45.4951 76.1465 44.6528 75.7705 44.106 75.0186C43.5591 74.2617 43.2759 73.1338 43.2563 71.6348V69.8257C43.2563 68.2583 43.5273 67.0938 44.0693 66.332C44.6113 65.5703 45.4609 65.1895 46.6182 65.1895C47.7656 65.1895 48.6104 65.5581 49.1523 66.2954C49.6943 67.0278 49.9727 68.1606 49.9873 69.6938V71.4517ZM48.6323 69.5986C48.6323 68.4512 48.4712 67.6162 48.1489 67.0938C47.8267 66.5664 47.3164 66.3027 46.6182 66.3027C45.9248 66.3027 45.4194 66.564 45.1021 67.0864C44.7847 67.6089 44.6211 68.4121 44.6113 69.4961V71.6641C44.6113 72.8164 44.7773 73.6685 45.1094 74.2202C45.4463 74.7671 45.9541 75.0405 46.6328 75.0405C47.3018 75.0405 47.7974 74.7817 48.1196 74.2642C48.4468 73.7466 48.6177 72.9312 48.6323 71.8179V69.5986ZM58.4102 71.4517C58.4102 73.0386 58.1392 74.2178 57.5972 74.9893C57.0552 75.7607 56.208 76.1465 55.0557 76.1465C53.918 76.1465 53.0757 75.7705 52.5288 75.0186C51.9819 74.2617 51.6987 73.1338 51.6792 71.6348V69.8257C51.6792 68.2583 51.9502 67.0938 52.4922 66.332C53.0342 65.5703 53.8838 65.1895 55.041 65.1895C56.1885 65.1895 57.0332 65.5581 57.5752 66.2954C58.1172 67.0278 58.3955 68.1606 58.4102 69.6938V71.4517ZM57.0552 69.5986C57.0552 68.4512 56.894 67.6162 56.5718 67.0938C56.2495 66.5664 55.7393 66.3027 55.041 66.3027C54.3477 66.3027 53.8423 66.564 53.5249 67.0864C53.2075 67.6089 53.0439 68.4121 53.0342 69.4961V71.6641C53.0342 72.8164 53.2002 73.6685 53.5322 74.2202C53.8691 74.7671 54.377 75.0405 55.0557 75.0405C55.7246 75.0405 56.2202 74.7817 56.5425 74.2642C56.8696 73.7466 57.0405 72.9312 57.0552 71.8179V69.5986Z" fill="white"/>
<path d="M98.9233 78H91.0044V76.896L95.188 72.2476C95.8078 71.5448 96.2339 70.9748 96.4663 70.5376C96.7043 70.0949 96.8232 69.6383 96.8232 69.168C96.8232 68.5371 96.6323 68.0197 96.2505 67.6157C95.8687 67.2118 95.3595 67.0098 94.7231 67.0098C93.9595 67.0098 93.3646 67.2284 92.9385 67.6655C92.5179 68.0972 92.3076 68.7004 92.3076 69.4751H90.772C90.772 68.3628 91.1289 67.4635 91.8428 66.7773C92.5622 66.0911 93.5223 65.748 94.7231 65.748C95.8465 65.748 96.7347 66.0441 97.3877 66.6362C98.0407 67.2228 98.3672 68.0059 98.3672 68.9854C98.3672 70.1751 97.609 71.5918 96.0928 73.2354L92.8555 76.7466H98.9233V78ZM108.129 72.8452C108.129 74.6437 107.822 75.9801 107.208 76.8545C106.593 77.7288 105.633 78.166 104.327 78.166C103.038 78.166 102.083 77.7399 101.463 76.8877C100.844 76.0299 100.523 74.7516 100.5 73.0527V71.0024C100.5 69.2261 100.808 67.9062 101.422 67.043C102.036 66.1797 102.999 65.748 104.311 65.748C105.611 65.748 106.568 66.1659 107.183 67.0015C107.797 67.8315 108.112 69.1154 108.129 70.853V72.8452ZM106.593 70.7451C106.593 69.4447 106.411 68.4984 106.045 67.9062C105.68 67.3086 105.102 67.0098 104.311 67.0098C103.525 67.0098 102.952 67.3058 102.592 67.8979C102.233 68.4901 102.047 69.4004 102.036 70.6289V73.0859C102.036 74.3919 102.224 75.3576 102.601 75.9829C102.982 76.6027 103.558 76.9126 104.327 76.9126C105.085 76.9126 105.647 76.6193 106.012 76.0327C106.383 75.4461 106.577 74.522 106.593 73.2603V70.7451Z" fill="white"/>
<path d="M18.3394 97H16.9771V87.9692L14.2451 88.9727V87.7422L18.127 86.2847H18.3394V97ZM28.9961 92.4517C28.9961 94.0386 28.7251 95.2178 28.1831 95.9893C27.6411 96.7607 26.7939 97.1465 25.6416 97.1465C24.5039 97.1465 23.6616 96.7705 23.1147 96.0186C22.5679 95.2617 22.2847 94.1338 22.2651 92.6348V90.8257C22.2651 89.2583 22.5361 88.0938 23.0781 87.332C23.6201 86.5703 24.4697 86.1895 25.627 86.1895C26.7744 86.1895 27.6191 86.5581 28.1611 87.2954C28.7031 88.0278 28.9814 89.1606 28.9961 90.6938V92.4517ZM27.6411 90.5986C27.6411 89.4512 27.48 88.6162 27.1577 88.0938C26.8354 87.5664 26.3252 87.3027 25.627 87.3027C24.9336 87.3027 24.4282 87.564 24.1108 88.0864C23.7935 88.6089 23.6299 89.4121 23.6201 90.4961V92.6641C23.6201 93.8164 23.7861 94.6685 24.1182 95.2202C24.4551 95.7671 24.9629 96.0405 25.6416 96.0405C26.3105 96.0405 26.8062 95.7817 27.1284 95.2642C27.4556 94.7466 27.6265 93.9312 27.6411 92.8179V90.5986ZM35.1851 97H33.8228V87.9692L31.0908 88.9727V87.7422L34.9727 86.2847H35.1851V97ZM42.1138 93.0229H38.5396V91.917H42.1138V93.0229ZM47.7534 97H46.3911V87.9692L43.6592 88.9727V87.7422L47.541 86.2847H47.7534V97ZM52.3457 91.6533L52.8877 86.3359H58.3516V87.5884H54.0376L53.7153 90.4961C54.2378 90.1885 54.8311 90.0347 55.4951 90.0347C56.4668 90.0347 57.2383 90.3569 57.8096 91.0015C58.3809 91.6411 58.6665 92.5078 58.6665 93.6016C58.6665 94.7002 58.3687 95.5669 57.7729 96.2017C57.1821 96.8315 56.3545 97.1465 55.29 97.1465C54.3477 97.1465 53.5786 96.8853 52.9829 96.3628C52.3872 95.8403 52.0479 95.1177 51.9648 94.1948H53.2466C53.3296 94.8052 53.5469 95.2666 53.8984 95.5791C54.25 95.8867 54.7139 96.0405 55.29 96.0405C55.9199 96.0405 56.4131 95.8257 56.7695 95.396C57.1309 94.9663 57.3115 94.373 57.3115 93.6162C57.3115 92.9033 57.1162 92.332 56.7256 91.9023C56.3398 91.4678 55.8247 91.2505 55.1802 91.2505C54.5894 91.2505 54.1255 91.3799 53.7886 91.6387L53.4297 91.9316L52.3457 91.6533ZM66.833 92.4517C66.833 94.0386 66.562 95.2178 66.02 95.9893C65.478 96.7607 64.6309 97.1465 63.4785 97.1465C62.3408 97.1465 61.4985 96.7705 60.9517 96.0186C60.4048 95.2617 60.1216 94.1338 60.1021 92.6348V90.8257C60.1021 89.2583 60.373 88.0938 60.915 87.332C61.457 86.5703 62.3066 86.1895 63.4639 86.1895C64.6113 86.1895 65.4561 86.5581 65.998 87.2954C66.54 88.0278 66.8184 89.1606 66.833 90.6938V92.4517ZM65.478 90.5986C65.478 89.4512 65.3169 88.6162 64.9946 88.0938C64.6724 87.5664 64.1621 87.3027 63.4639 87.3027C62.7705 87.3027 62.2651 87.564 61.9478 88.0864C61.6304 88.6089 61.4668 89.4121 61.457 90.4961V92.6641C61.457 93.8164 61.623 94.6685 61.9551 95.2202C62.292 95.7671 62.7998 96.0405 63.4785 96.0405C64.1475 96.0405 64.6431 95.7817 64.9653 95.2642C65.2925 94.7466 65.4634 93.9312 65.478 92.8179V90.5986Z" fill="white"/>
<path d="M93.2373 92.21H94.3911C95.116 92.1989 95.686 92.008 96.1011 91.6372C96.5161 91.2664 96.7236 90.7656 96.7236 90.1348C96.7236 88.7181 96.0181 88.0098 94.6069 88.0098C93.9429 88.0098 93.4116 88.2007 93.0132 88.5825C92.6203 88.9588 92.4238 89.4596 92.4238 90.085H90.8882C90.8882 89.1276 91.2368 88.3335 91.9341 87.7026C92.6369 87.0662 93.5278 86.748 94.6069 86.748C95.7469 86.748 96.6406 87.0496 97.2881 87.6528C97.9355 88.256 98.2593 89.0944 98.2593 90.168C98.2593 90.6937 98.0877 91.2028 97.7446 91.6953C97.4071 92.1878 96.945 92.5558 96.3584 92.7993C97.0225 93.0096 97.5343 93.3582 97.894 93.8452C98.2593 94.3322 98.4419 94.9271 98.4419 95.6299C98.4419 96.7145 98.0877 97.575 97.3794 98.2114C96.6711 98.8478 95.7497 99.166 94.6152 99.166C93.4808 99.166 92.5566 98.8589 91.8428 98.2446C91.1344 97.6304 90.7803 96.8197 90.7803 95.8125H92.3242C92.3242 96.4489 92.5317 96.958 92.9468 97.3398C93.3618 97.7217 93.918 97.9126 94.6152 97.9126C95.3568 97.9126 95.924 97.7189 96.3169 97.3315C96.7098 96.9442 96.9062 96.388 96.9062 95.6631C96.9062 94.9603 96.6904 94.4207 96.2588 94.0444C95.8271 93.6681 95.2046 93.4744 94.3911 93.4634H93.2373V92.21Z" fill="white"/>
<path d="M17.9834 117H16.7119V108.571L14.1621 109.508V108.359L17.7852 106.999H17.9834V117ZM22.2695 112.01L22.7754 107.047H27.875V108.216H23.8486L23.5479 110.93C24.0355 110.643 24.5892 110.499 25.209 110.499C26.1159 110.499 26.8359 110.8 27.3691 111.401C27.9023 111.998 28.1689 112.807 28.1689 113.828C28.1689 114.854 27.891 115.662 27.335 116.255C26.7835 116.843 26.0111 117.137 25.0176 117.137C24.138 117.137 23.4202 116.893 22.8643 116.405C22.3083 115.918 21.9915 115.243 21.9141 114.382H23.1104C23.1878 114.951 23.3906 115.382 23.7188 115.674C24.0469 115.961 24.4798 116.104 25.0176 116.104C25.6055 116.104 26.0658 115.904 26.3984 115.503C26.7357 115.102 26.9043 114.548 26.9043 113.842C26.9043 113.176 26.722 112.643 26.3574 112.242C25.9974 111.837 25.5166 111.634 24.915 111.634C24.3636 111.634 23.9307 111.755 23.6162 111.996L23.2812 112.27L22.2695 112.01ZM33.7061 117H32.4346V108.571L29.8848 109.508V108.359L33.5078 106.999H33.7061V117ZM40.1729 113.288H36.8369V112.256H40.1729V113.288ZM47.8018 117H41.2803V116.091L44.7256 112.263C45.236 111.684 45.5869 111.215 45.7783 110.854C45.9743 110.49 46.0723 110.114 46.0723 109.727C46.0723 109.207 45.915 108.781 45.6006 108.448C45.2861 108.116 44.8669 107.949 44.3428 107.949C43.7139 107.949 43.224 108.129 42.873 108.489C42.5267 108.845 42.3535 109.341 42.3535 109.979H41.0889C41.0889 109.063 41.3828 108.323 41.9707 107.758C42.5632 107.193 43.3538 106.91 44.3428 106.91C45.2679 106.91 45.9993 107.154 46.5371 107.642C47.0749 108.125 47.3438 108.77 47.3438 109.576C47.3438 110.556 46.7194 111.723 45.4707 113.076L42.8047 115.968H47.8018V117ZM55.3828 112.755C55.3828 114.236 55.1299 115.337 54.624 116.057C54.1182 116.777 53.3275 117.137 52.252 117.137C51.1901 117.137 50.404 116.786 49.8936 116.084C49.3831 115.378 49.1188 114.325 49.1006 112.926V111.237C49.1006 109.774 49.3535 108.688 49.8594 107.977C50.3652 107.266 51.1582 106.91 52.2383 106.91C53.3092 106.91 54.0977 107.254 54.6035 107.942C55.1094 108.626 55.3691 109.683 55.3828 111.114V112.755ZM54.1182 111.025C54.1182 109.954 53.9678 109.175 53.667 108.688C53.3662 108.195 52.89 107.949 52.2383 107.949C51.5911 107.949 51.1195 108.193 50.8232 108.681C50.527 109.168 50.3743 109.918 50.3652 110.93V112.953C50.3652 114.029 50.5202 114.824 50.8301 115.339C51.1445 115.849 51.6185 116.104 52.252 116.104C52.8763 116.104 53.3389 115.863 53.6396 115.38C53.945 114.897 54.1045 114.136 54.1182 113.097V111.025ZM63.2441 112.755C63.2441 114.236 62.9912 115.337 62.4854 116.057C61.9795 116.777 61.1888 117.137 60.1133 117.137C59.0514 117.137 58.2653 116.786 57.7549 116.084C57.2445 115.378 56.9801 114.325 56.9619 112.926V111.237C56.9619 109.774 57.2148 108.688 57.7207 107.977C58.2266 107.266 59.0195 106.91 60.0996 106.91C61.1706 106.91 61.959 107.254 62.4648 107.942C62.9707 108.626 63.2305 109.683 63.2441 111.114V112.755ZM61.9795 111.025C61.9795 109.954 61.8291 109.175 61.5283 108.688C61.2275 108.195 60.7513 107.949 60.0996 107.949C59.4525 107.949 58.9808 108.193 58.6846 108.681C58.3883 109.168 58.2357 109.918 58.2266 110.93V112.953C58.2266 114.029 58.3815 114.824 58.6914 115.339C59.0059 115.849 59.4798 116.104 60.1133 116.104C60.7376 116.104 61.2002 115.863 61.501 115.38C61.8063 114.897 61.9658 114.136 61.9795 113.097V111.025Z" fill="white"/>
<path d="M96.8896 114.688C96.5687 115.069 96.1841 115.376 95.7358 115.609C95.2931 115.841 94.8062 115.958 94.2749 115.958C93.5776 115.958 92.9689 115.786 92.4487 115.443C91.9341 115.1 91.5356 114.618 91.2534 113.999C90.9712 113.373 90.8301 112.684 90.8301 111.932C90.8301 111.124 90.9823 110.396 91.2866 109.749C91.5965 109.101 92.0337 108.606 92.5981 108.263C93.1626 107.92 93.8211 107.748 94.5737 107.748C95.769 107.748 96.7098 108.196 97.396 109.093C98.0877 109.984 98.4336 111.201 98.4336 112.745V113.193C98.4336 115.545 97.9688 117.264 97.0391 118.348C96.1094 119.427 94.7065 119.981 92.8306 120.008H92.5317V118.713H92.8555C94.1227 118.691 95.0967 118.362 95.7773 117.726C96.458 117.084 96.8288 116.071 96.8896 114.688ZM94.5239 114.688C95.0386 114.688 95.5117 114.53 95.9434 114.214C96.3805 113.899 96.6987 113.509 96.8979 113.044V112.43C96.8979 111.423 96.6794 110.604 96.2422 109.973C95.805 109.342 95.2516 109.026 94.582 109.026C93.9069 109.026 93.3646 109.286 92.9551 109.807C92.5456 110.321 92.3408 111.002 92.3408 111.849C92.3408 112.673 92.5373 113.354 92.9302 113.891C93.3286 114.422 93.8599 114.688 94.5239 114.688Z" fill="white"/>
<path d="M20.8735 139H13.8862V138.026L17.5776 133.924C18.1245 133.304 18.5005 132.801 18.7056 132.416C18.9155 132.025 19.0205 131.622 19.0205 131.207C19.0205 130.65 18.8521 130.194 18.5151 129.837C18.1782 129.481 17.729 129.303 17.1675 129.303C16.4937 129.303 15.9688 129.496 15.5928 129.881C15.2217 130.262 15.0361 130.794 15.0361 131.478H13.6812C13.6812 130.497 13.9961 129.703 14.626 129.098C15.2607 128.492 16.1079 128.189 17.1675 128.189C18.1587 128.189 18.9424 128.451 19.5186 128.973C20.0947 129.491 20.3828 130.182 20.3828 131.046C20.3828 132.096 19.7139 133.346 18.376 134.796L15.5195 137.894H20.8735V139ZM28.9961 134.452C28.9961 136.039 28.7251 137.218 28.1831 137.989C27.6411 138.761 26.7939 139.146 25.6416 139.146C24.5039 139.146 23.6616 138.771 23.1147 138.019C22.5679 137.262 22.2847 136.134 22.2651 134.635V132.826C22.2651 131.258 22.5361 130.094 23.0781 129.332C23.6201 128.57 24.4697 128.189 25.627 128.189C26.7744 128.189 27.6191 128.558 28.1611 129.295C28.7031 130.028 28.9814 131.161 28.9961 132.694V134.452ZM27.6411 132.599C27.6411 131.451 27.48 130.616 27.1577 130.094C26.8354 129.566 26.3252 129.303 25.627 129.303C24.9336 129.303 24.4282 129.564 24.1108 130.086C23.7935 130.609 23.6299 131.412 23.6201 132.496V134.664C23.6201 135.816 23.7861 136.668 24.1182 137.22C24.4551 137.767 24.9629 138.041 25.6416 138.041C26.3105 138.041 26.8062 137.782 27.1284 137.264C27.4556 136.747 27.6265 135.931 27.6411 134.818V132.599ZM35.1851 139H33.8228V129.969L31.0908 130.973V129.742L34.9727 128.285H35.1851V139ZM42.1138 135.023H38.5396V133.917H42.1138V135.023ZM45.2705 133.009H46.2886C46.9282 132.999 47.4312 132.831 47.7974 132.503C48.1636 132.176 48.3467 131.734 48.3467 131.178C48.3467 129.928 47.7241 129.303 46.479 129.303C45.8931 129.303 45.4243 129.471 45.0728 129.808C44.7261 130.14 44.5527 130.582 44.5527 131.134H43.1978C43.1978 130.289 43.5054 129.588 44.1206 129.032C44.7407 128.47 45.5269 128.189 46.479 128.189C47.4849 128.189 48.2734 128.456 48.8447 128.988C49.416 129.52 49.7017 130.26 49.7017 131.207C49.7017 131.671 49.5503 132.12 49.2476 132.555C48.9497 132.989 48.542 133.314 48.0244 133.529C48.6104 133.714 49.062 134.022 49.3794 134.452C49.7017 134.881 49.8628 135.406 49.8628 136.026C49.8628 136.983 49.5503 137.743 48.9253 138.304C48.3003 138.866 47.4873 139.146 46.4863 139.146C45.4854 139.146 44.6699 138.875 44.04 138.333C43.415 137.792 43.1025 137.076 43.1025 136.188H44.4648C44.4648 136.749 44.6479 137.198 45.0142 137.535C45.3804 137.872 45.8711 138.041 46.4863 138.041C47.1406 138.041 47.6411 137.87 47.9878 137.528C48.3345 137.186 48.5078 136.695 48.5078 136.056C48.5078 135.436 48.3174 134.959 47.9365 134.627C47.5557 134.295 47.0063 134.125 46.2886 134.115H45.2705V133.009ZM58.4102 134.452C58.4102 136.039 58.1392 137.218 57.5972 137.989C57.0552 138.761 56.208 139.146 55.0557 139.146C53.918 139.146 53.0757 138.771 52.5288 138.019C51.9819 137.262 51.6987 136.134 51.6792 134.635V132.826C51.6792 131.258 51.9502 130.094 52.4922 129.332C53.0342 128.57 53.8838 128.189 55.041 128.189C56.1885 128.189 57.0332 128.558 57.5752 129.295C58.1172 130.028 58.3955 131.161 58.4102 132.694V134.452ZM57.0552 132.599C57.0552 131.451 56.894 130.616 56.5718 130.094C56.2495 129.566 55.7393 129.303 55.041 129.303C54.3477 129.303 53.8423 129.564 53.5249 130.086C53.2075 130.609 53.0439 131.412 53.0342 132.496V134.664C53.0342 135.816 53.2002 136.668 53.5322 137.22C53.8691 137.767 54.377 138.041 55.0557 138.041C55.7246 138.041 56.2202 137.782 56.5425 137.264C56.8696 136.747 57.0405 135.931 57.0552 134.818V132.599ZM66.833 134.452C66.833 136.039 66.562 137.218 66.02 137.989C65.478 138.761 64.6309 139.146 63.4785 139.146C62.3408 139.146 61.4985 138.771 60.9517 138.019C60.4048 137.262 60.1216 136.134 60.1021 134.635V132.826C60.1021 131.258 60.373 130.094 60.915 129.332C61.457 128.57 62.3066 128.189 63.4639 128.189C64.6113 128.189 65.4561 128.558 65.998 129.295C66.54 130.028 66.8184 131.161 66.833 132.694V134.452ZM65.478 132.599C65.478 131.451 65.3169 130.616 64.9946 130.094C64.6724 129.566 64.1621 129.303 63.4639 129.303C62.7705 129.303 62.2651 129.564 61.9478 130.086C61.6304 130.609 61.4668 131.412 61.457 132.496V134.664C61.457 135.816 61.623 136.668 61.9551 137.22C62.292 137.767 62.7998 138.041 63.4785 138.041C64.1475 138.041 64.6431 137.782 64.9653 137.264C65.2925 136.747 65.4634 135.931 65.478 134.818V132.599Z" fill="white"/>
<path d="M98.583 135.845C98.583 137.644 98.2759 138.98 97.6616 139.854C97.0474 140.729 96.0872 141.166 94.7812 141.166C93.4919 141.166 92.5373 140.74 91.9175 139.888C91.2977 139.03 90.9767 137.752 90.9546 136.053V134.002C90.9546 132.226 91.2617 130.906 91.876 130.043C92.4902 129.18 93.4531 128.748 94.7646 128.748C96.0651 128.748 97.0225 129.166 97.6367 130.001C98.251 130.832 98.5664 132.115 98.583 133.853V135.845ZM97.0474 133.745C97.0474 132.445 96.8647 131.498 96.4995 130.906C96.1343 130.309 95.556 130.01 94.7646 130.01C93.9788 130.01 93.4061 130.306 93.0464 130.898C92.6867 131.49 92.5013 132.4 92.4902 133.629V136.086C92.4902 137.392 92.6784 138.358 93.0547 138.983C93.4365 139.603 94.012 139.913 94.7812 139.913C95.5394 139.913 96.1011 139.619 96.4663 139.033C96.8371 138.446 97.0308 137.522 97.0474 136.26V133.745Z" fill="white"/>
<path d="M15.8564 154.009H16.8745C17.5142 153.999 18.0171 153.831 18.3833 153.503C18.7495 153.176 18.9326 152.734 18.9326 152.178C18.9326 150.928 18.3101 150.303 17.0649 150.303C16.479 150.303 16.0103 150.471 15.6587 150.808C15.312 151.14 15.1387 151.582 15.1387 152.134H13.7837C13.7837 151.289 14.0913 150.588 14.7065 150.032C15.3267 149.47 16.1128 149.189 17.0649 149.189C18.0708 149.189 18.8594 149.456 19.4307 149.988C20.002 150.52 20.2876 151.26 20.2876 152.207C20.2876 152.671 20.1362 153.12 19.8335 153.555C19.5356 153.989 19.1279 154.314 18.6104 154.529C19.1963 154.714 19.6479 155.022 19.9653 155.452C20.2876 155.881 20.4487 156.406 20.4487 157.026C20.4487 157.983 20.1362 158.743 19.5112 159.304C18.8862 159.866 18.0732 160.146 17.0723 160.146C16.0713 160.146 15.2559 159.875 14.626 159.333C14.001 158.792 13.6885 158.076 13.6885 157.188H15.0508C15.0508 157.749 15.2339 158.198 15.6001 158.535C15.9663 158.872 16.457 159.041 17.0723 159.041C17.7266 159.041 18.2271 158.87 18.5737 158.528C18.9204 158.186 19.0938 157.695 19.0938 157.056C19.0938 156.436 18.9033 155.959 18.5225 155.627C18.1416 155.295 17.5923 155.125 16.8745 155.115H15.8564V154.009ZM28.9961 155.452C28.9961 157.039 28.7251 158.218 28.1831 158.989C27.6411 159.761 26.7939 160.146 25.6416 160.146C24.5039 160.146 23.6616 159.771 23.1147 159.019C22.5679 158.262 22.2847 157.134 22.2651 155.635V153.826C22.2651 152.258 22.5361 151.094 23.0781 150.332C23.6201 149.57 24.4697 149.189 25.627 149.189C26.7744 149.189 27.6191 149.558 28.1611 150.295C28.7031 151.028 28.9814 152.161 28.9961 153.694V155.452ZM27.6411 153.599C27.6411 152.451 27.48 151.616 27.1577 151.094C26.8354 150.566 26.3252 150.303 25.627 150.303C24.9336 150.303 24.4282 150.564 24.1108 151.086C23.7935 151.609 23.6299 152.412 23.6201 153.496V155.664C23.6201 156.816 23.7861 157.668 24.1182 158.22C24.4551 158.767 24.9629 159.041 25.6416 159.041C26.3105 159.041 26.8062 158.782 27.1284 158.264C27.4556 157.747 27.6265 156.931 27.6411 155.818V153.599ZM35.1851 160H33.8228V150.969L31.0908 151.973V150.742L34.9727 149.285H35.1851V160ZM43.1758 154.28H46.1494V155.562H43.1758V158.931H41.8135V155.562H38.8398V154.28H41.8135V151.167H43.1758V154.28Z" fill="white"/>
<path d="M98.583 156.845C98.583 158.644 98.2759 159.98 97.6616 160.854C97.0474 161.729 96.0872 162.166 94.7812 162.166C93.4919 162.166 92.5373 161.74 91.9175 160.888C91.2977 160.03 90.9767 158.752 90.9546 157.053V155.002C90.9546 153.226 91.2617 151.906 91.876 151.043C92.4902 150.18 93.4531 149.748 94.7646 149.748C96.0651 149.748 97.0225 150.166 97.6367 151.001C98.251 151.832 98.5664 153.115 98.583 154.853V156.845ZM97.0474 154.745C97.0474 153.445 96.8647 152.498 96.4995 151.906C96.1343 151.309 95.556 151.01 94.7646 151.01C93.9788 151.01 93.4061 151.306 93.0464 151.898C92.6867 152.49 92.5013 153.4 92.4902 154.629V157.086C92.4902 158.392 92.6784 159.358 93.0547 159.983C93.4365 160.603 94.012 160.913 94.7812 160.913C95.5394 160.913 96.1011 160.619 96.4663 160.033C96.8371 159.446 97.0308 158.522 97.0474 157.26V154.745Z" fill="white"/>
</svg>
